<?xml version="1.0" standalone="no"?><svg xmlns="http://www.w3.org/2000/svg" viewBox="0 0 1440 320"><path fill="#f3f4f5" fill-opacity="1" d="M0,32L26.7,64C53.3,96,107,160,160,197.3C213.3,235,267,245,320,240C373.3,235,427,213,480,181.3C533.3,149,587,107,640,90.7C693.3,75,747,85,800,122.7C853.3,160,907,224,960,234.7C1013.3,245,1067,203,1120,176C1173.3,149,1227,139,1280,138.7C1333.3,139,1387,149,1413,154.7L1440,160L1440,320L1413.3,320C1386.7,320,1333,320,1280,320C1226.7,320,1173,320,1120,320C1066.7,320,1013,320,960,320C906.7,320,853,320,800,320C746.7,320,693,320,640,320C586.7,320,533,320,480,320C426.7,320,373,320,320,320C266.7,320,213,320,160,320C106.7,320,53,320,27,320L0,320Z"></path></svg>